<?xml version="1.0" encoding="iso-8859-1"?>
<!-- Generator: Adobe Illustrator 19.0.0, SVG Export Plug-In . SVG Version: 6.00 Build 0)  -->
<svg version="1.1" id="Capa_1" xmlns="http://www.w3.org/2000/svg" xmlns:xlink="http://www.w3.org/1999/xlink" x="0px" y="0px"
	 viewBox="0 0 512 512" style="enable-background:new 0 0 512 512;" xml:space="preserve">
<g>
	<g>
		<path d="M398.5,0h-285C92.822,0,76,16.822,76,37.5V221c0,18.11,12.904,33.261,30,36.745V281c0,4.143,3.357,7.5,7.5,7.5h7.712
			c2.608,47.397,29.779,88.351,68.968,110.329l-16.587,104.495c-0.344,2.167,0.278,4.377,1.703,6.046
			c1.425,1.669,3.51,2.63,5.704,2.63h150c2.194,0,4.279-0.961,5.704-2.63c1.425-1.669,2.047-3.879,1.703-6.046L321.82,398.829
			c39.189-21.978,66.359-62.932,68.968-110.329h7.712c4.143,0,7.5-3.357,7.5-7.5v-23.255c17.096-3.484,30-18.635,30-36.745V37.5
			C436,16.822,419.178,0,398.5,0z M113.5,15h285c9.777,0,18.114,6.271,21.21,15H92.29C95.386,21.271,103.723,15,113.5,15z
			 M322.216,497H189.784l14.494-91.308C220.216,412.328,237.686,416,256,416c18.314,0,35.784-3.672,51.722-10.308L322.216,497z
			 M391,273.5H188.5c-4.143,0-7.5,3.357-7.5,7.5s3.357,7.5,7.5,7.5h187.259C371.873,351.187,319.648,401,256,401
			s-115.873-49.813-119.759-112.5H158.5c4.143,0,7.5-3.357,7.5-7.5s-3.357-7.5-7.5-7.5H121v-15h270V273.5z M122.29,243.5
			c3.096-8.729,11.433-15,21.21-15h225c9.777,0,18.114,6.271,21.21,15H122.29z M421,221c0,10.138-6.742,18.729-15.976,21.532
			c-3.851-16.611-18.759-29.032-36.524-29.032h-225c-17.765,0-32.673,12.421-36.524,29.032C97.742,239.729,91,231.138,91,221V45h330
			V221z"/>
	</g>
</g>
<g>
	<g>
		<path d="M168.5,70h-45c-4.143,0-7.5,3.357-7.5,7.5s3.357,7.5,7.5,7.5h45c4.143,0,7.5-3.357,7.5-7.5S172.643,70,168.5,70z"/>
	</g>
</g>
<g>
</g>
<g>
</g>
<g>
</g>
<g>
</g>
<g>
</g>
<g>
</g>
<g>
</g>
<g>
</g>
<g>
</g>
<g>
</g>
<g>
</g>
<g>
</g>
<g>
</g>
<g>
</g>
<g>
</g>
</svg>
